<svg xmlns="http://www.w3.org/2000/svg" xmlns:xlink="http://www.w3.org/1999/xlink" preserveAspectRatio="none" viewBox="0 0 200 200">
  <defs>
    <filter id="filter">
      <feGaussianBlur stdDeviation="7" />
    </filter>
    <!-- <mask id="mask">
      <ellipse cx="50%" cy="50%" rx="25%" ry="25%" fill="white" filter="url(#filter)"></ellipse>
    </mask> -->
  </defs>
  <style>
    .p1 {
        animation: spin 5s linear infinite;
    }
    .p2 {
        animation: spin 7s linear infinite;
    }
    .p3 {
        animation: spin 9s linear infinite;
    }

    @keyframes spin {
        0% {
            transform: translate(100px, 100px) rotate(0deg);
        }
        100% {
            transform: translate(100px, 100px) rotate(360deg);
        }
    }
  </style>
    <path class="p1" fill="white" filter="url(#filter)" d="M34.2,-58.3C43.9,-53.8,50.8,-43.5,57.4,-32.9C64,-22.2,70.3,-11.1,69,-0.8C67.6,9.5,58.6,19.1,51.4,28.8C44.2,38.5,38.9,48.3,30.6,56.1C22.4,63.8,11.2,69.5,1.2,67.4C-8.8,65.3,-17.6,55.5,-28.9,49.6C-40.3,43.6,-54.2,41.5,-62.7,33.8C-71.2,26.2,-74.4,13.1,-70.6,2.2C-66.8,-8.7,-56,-17.4,-49.4,-28.4C-42.9,-39.4,-40.4,-52.6,-32.9,-58.3C-25.3,-64.1,-12.7,-62.4,-0.2,-62.1C12.3,-61.8,24.6,-62.9,34.2,-58.3Z" transform="translate(100 100)" />
  
    <path class="p2" fill="white" filter="url(#filter)" d="M30.7,-52.5C41.4,-47.1,52.8,-42.1,60.4,-33.4C68,-24.7,71.9,-12.4,74.4,1.4C76.9,15.2,78.1,30.5,72.5,42.7C66.9,54.8,54.5,63.9,41.3,65.3C28.1,66.7,14.1,60.2,0,60.2C-14,60.1,-28,66.4,-42.3,65.7C-56.7,65,-71.4,57.4,-79.2,45.2C-86.9,33.1,-87.7,16.6,-85.8,1.1C-83.9,-14.3,-79.2,-28.7,-71.8,-41.4C-64.4,-54.2,-54.3,-65.4,-41.9,-69.9C-29.5,-74.3,-14.8,-72,-2.4,-67.9C10,-63.8,20,-57.9,30.7,-52.5Z" transform="translate(100 100)" />
    <path class="p3" fill="white" filter="url(#filter)" d="M42,-71C54.5,-65.4,64.9,-54.5,67.7,-41.7C70.5,-29,65.8,-14.5,63.2,-1.5C60.6,11.5,60.2,23,55,31.6C49.7,40.1,39.7,45.8,29.7,54C19.8,62.2,9.9,73,0.8,71.6C-8.3,70.3,-16.7,56.8,-27.4,49.1C-38.1,41.3,-51.2,39.2,-63,32C-74.8,24.7,-85.2,12.4,-82.9,1.3C-80.6,-9.7,-65.6,-19.4,-58,-33.9C-50.3,-48.3,-50.1,-67.4,-41.7,-75.3C-33.3,-83.3,-16.6,-80.2,-1,-78.5C14.7,-76.8,29.4,-76.6,42,-71Z" transform="translate(100 100)" />
    <!-- <ellipse cx="50%" cy="50%" rx="25%" ry="25%" fill="white" filter="url(#filter)"></ellipse> -->
</svg>